<svg width="24" height="24" viewBox="0 0 24 24" fill="none" xmlns="http://www.w3.org/2000/svg">
<path d="M11 2C8.66004 2 5.71004 3.72 5.76004 8.16L2.04004 12.98C1.93004 13.12 2.06004 13.3 2.26004 13.3L4.74004 14.53C4.87004 15.45 5.35004 18.13 5.61004 19.47C5.70004 19.89 9.80004 19.57 9.80004 19.57L11 22" fill="#FF8A65"/>
<path d="M11 2C8.66004 2 5.71004 3.72 5.76004 8.16L2.04004 12.98C1.93004 13.12 2.06004 13.3 2.26004 13.3L4.74004 14.53C4.87004 15.45 5.35004 18.13 5.61004 19.47C5.70004 19.89 9.80004 19.57 9.80004 19.57L11 22" stroke="black" stroke-width="1.2" stroke-miterlimit="10" stroke-linecap="round" stroke-linejoin="round"/>
<path fill-rule="evenodd" clip-rule="evenodd" d="M15.845 2.20212C15.9567 1.89013 15.7943 1.54669 15.4823 1.43503C15.1703 1.32337 14.8269 1.48577 14.7152 1.79777L13.6952 4.64777C13.5836 4.95976 13.746 5.30319 14.058 5.41485C14.3699 5.52651 14.7134 5.36411 14.825 5.05212L15.845 2.20212ZM22.0494 5.22027C22.3147 5.0217 22.3688 4.64567 22.1702 4.38038C21.9717 4.1151 21.5956 4.06102 21.3303 4.2596L17.9103 6.8196C17.6451 7.01817 17.591 7.3942 17.7896 7.65948C17.9881 7.92477 18.3642 7.97885 18.6294 7.78027L22.0494 5.22027ZM18.1315 11.826C18.1557 11.4955 18.4433 11.2473 18.7738 11.2715L22.0438 11.5115C22.3743 11.5358 22.6225 11.8234 22.5982 12.1539C22.574 12.4843 22.2864 12.7326 21.9559 12.7083L18.6859 12.4683C18.3555 12.4441 18.1072 12.1565 18.1315 11.826ZM11.7201 17.31C11.3887 17.31 11.1201 17.5786 11.1201 17.91C11.1201 18.2414 11.3887 18.51 11.7201 18.51H14.3501C14.6815 18.51 14.9501 18.2414 14.9501 17.91C14.9501 17.5786 14.6815 17.31 14.3501 17.31H11.7201ZM11.1201 15.3299C11.1201 14.9985 11.3887 14.7299 11.7201 14.7299H11.8795C10.5603 13.6226 8.75422 11.1929 10.2302 9.24996C11.6702 7.35996 14.4002 7.35996 15.8402 9.24996C17.3146 11.1909 15.5208 13.6244 14.1985 14.7299H14.3501C14.6815 14.7299 14.9501 14.9985 14.9501 15.3299C14.9501 15.6613 14.6815 15.9299 14.3501 15.9299H11.7201C11.3887 15.9299 11.1201 15.6613 11.1201 15.3299ZM13.6402 14.7299V12.1747C13.9187 11.9751 14.1001 11.6487 14.1001 11.28C14.1001 10.6725 13.6077 10.18 13.0001 10.18C12.3926 10.18 11.9001 10.6725 11.9001 11.28C11.9001 11.683 12.1169 12.0354 12.4402 12.227V14.7299H13.6402ZM12.9731 11.1837C12.9858 11.1823 12.9987 11.1812 13.0117 11.1806C13.0079 11.1802 13.0041 11.18 13.0001 11.18C12.9908 11.18 12.9817 11.1813 12.9731 11.1837Z" fill="black"/>
</svg>
