<svg width="28" height="26" viewBox="0 0 28 26" fill="none" xmlns="http://www.w3.org/2000/svg">
<path d="M19.9225 12.2913L22.2849 10.0234L16.6422 4.60641L14.2798 6.87433L8.05026 0.908407C6.87658 -0.21833 4.96558 -0.21833 3.7919 0.908407L0.932928 3.65302C-0.240756 4.77976 -0.240756 6.61431 0.932928 7.74105L7.14743 13.707L0.225708 20.3663C0.0752363 20.5107 0 20.6841 0 20.8863V25.2777C0 25.6822 0.331039 26 0.752361 26H5.32672C5.52233 26 5.71794 25.9277 5.85337 25.7833L12.8052 19.1095L19.0197 25.0755C21.0059 26.9822 23.1727 25.1766 23.2781 25.0755L26.137 22.3308C27.3107 21.2041 27.3107 19.3695 26.137 18.2428L19.9225 12.2913ZM9.29918 11.6557L3.06963 5.68981L5.91356 2.9452L7.82456 4.77976L7.11734 5.48758C6.53049 6.05095 6.53049 6.961 7.11734 7.52437C7.70418 8.08774 8.65215 8.08774 9.239 7.52437L9.96126 6.83099L12.1431 8.92557L9.29918 11.6557ZM21.1564 23.0531L14.9419 17.0872L17.8009 14.3426L19.9827 16.4371L19.2604 17.1305C18.6736 17.6939 18.6736 18.6039 19.2604 19.1673C19.8473 19.7307 20.7953 19.7307 21.3821 19.1673L22.1044 18.4739L24.0154 20.3085L21.1564 23.0531Z" fill="#FF8A65"/>
<path d="M26.6487 5.83431C27.2355 5.27095 27.2355 4.36089 26.6487 3.79752L23.1276 0.417313C22.4204 -0.261618 21.4423 -0.00160178 21.006 0.417313L18.2523 3.06081L23.895 8.47781L26.6487 5.83431Z" fill="#FF8A65"/>
</svg>
