<svg width="35" height="25" viewBox="0 0 35 25" fill="none" xmlns="http://www.w3.org/2000/svg">
<path d="M28.6674 6.25H24.7934V3.125C24.7934 1.40625 23.3988 0 21.6942 0H3.09917C1.39463 0 0 1.40625 0 3.125V17.1875C0 18.9063 1.39463 20.3125 3.09917 20.3125C3.09917 22.9062 5.17562 25 7.74793 25C10.3202 25 12.3967 22.9062 12.3967 20.3125H21.6942C21.6942 22.9062 23.7707 25 26.343 25C28.9153 25 30.9917 22.9062 30.9917 20.3125H32.5413C33.3936 20.3125 34.0909 19.6094 34.0909 18.75V13.5469C34.0909 12.875 33.874 12.2188 33.4711 11.6719L29.907 6.875C29.6126 6.48437 29.1477 6.25 28.6674 6.25ZM7.74793 21.875C6.89566 21.875 6.19835 21.1719 6.19835 20.3125C6.19835 19.4531 6.89566 18.75 7.74793 18.75C8.60021 18.75 9.29752 19.4531 9.29752 20.3125C9.29752 21.1719 8.60021 21.875 7.74793 21.875ZM28.6674 8.59375L31.7045 12.5H24.7934V8.59375H28.6674ZM26.343 21.875C25.4907 21.875 24.7934 21.1719 24.7934 20.3125C24.7934 19.4531 25.4907 18.75 26.343 18.75C27.1952 18.75 27.8926 19.4531 27.8926 20.3125C27.8926 21.1719 27.1952 21.875 26.343 21.875Z" fill="#C7C7C7"/>
</svg>
