<svg width="34" height="32" viewBox="0 0 34 32" fill="none" xmlns="http://www.w3.org/2000/svg">
<path d="M28.3194 4.9031C27.73 4.3074 26.778 4.3074 26.1886 4.9031L25.5993 5.49881C25.0099 6.09451 25.025 7.0568 25.5993 7.63723L25.6144 7.65251C26.2037 8.24821 27.1558 8.24821 27.7451 7.65251L28.3345 7.0568C28.9087 6.44582 28.9087 5.4988 28.3194 4.9031ZM16.6229 -5.21619e-07H16.6078C15.7766 -5.21619e-07 15.1117 0.672075 15.1117 1.51217V2.97852C15.1117 3.81862 15.7766 4.49069 16.6078 4.49069H16.6229C17.454 4.49069 18.1189 3.81862 18.1189 2.97852V1.51217C18.1189 0.672075 17.454 -5.21619e-07 16.6229 -5.21619e-07ZM30.1932 18.253H31.7346C32.5658 18.253 33.2307 17.5809 33.2307 16.7408V16.7255C33.2307 15.8854 32.5658 15.2134 31.7346 15.2134H30.2084C29.3772 15.2134 28.7123 15.8854 28.7123 16.7255V16.7408C28.6972 17.5809 29.3621 18.253 30.1932 18.253V18.253ZM12.0742 24.653V30.4726C12.0742 31.3126 12.7543 32 13.5854 32L19.6301 32C20.4613 32 21.1413 31.3126 21.1413 30.4726V24.653C24.2241 22.8506 26.1584 19.2764 25.569 15.2897C24.9646 11.3031 21.7004 8.11074 17.7412 7.62196C12.2405 6.94988 7.54071 11.2878 7.54071 16.7103C7.54071 20.1165 9.36924 23.0644 12.0742 24.653V24.653ZM4.51836 16.7408V16.7255C4.51836 15.8854 3.85344 15.2134 3.0223 15.2134H1.49601C0.66486 15.2134 -5.72715e-05 15.8854 -5.72715e-05 16.7255V16.7408C-5.72715e-05 17.5809 0.66486 18.253 1.49601 18.253H3.0223C3.85344 18.253 4.51836 17.5809 4.51836 16.7408ZM7.63138 5.48353L7.04202 4.88783C6.45267 4.29212 5.50063 4.29212 4.91127 4.88783C4.32191 5.48353 4.32191 6.44582 4.91127 7.04153L5.50062 7.63723C6.08998 8.23294 7.04202 8.21766 7.61627 7.63723C8.22074 7.02625 8.22074 6.07924 7.63138 5.48353Z" fill="#C7C7C7"/>
</svg>
