<svg width="28" height="26" viewBox="0 0 28 26" fill="none" xmlns="http://www.w3.org/2000/svg">
<path d="M26.7391 22.2862L19.5797 15.1268L16.5072 18.1993L23.6666 25.3587C24.5217 26.2138 25.8985 26.2138 26.7391 25.3587C27.5797 24.5036 27.5797 23.1268 26.7391 22.2862Z" fill="#FF8A65"/>
<path d="M21.8985 10.7065C24.6956 10.7065 26.971 8.43116 26.971 5.63406C26.971 4.79348 26.7391 4.01087 26.3768 3.31522L22.4638 7.22826L20.3043 5.06884L24.2174 1.1558C23.5217 0.793478 22.7391 0.561594 21.8985 0.561594C19.1014 0.561594 16.8261 2.83696 16.8261 5.63406C16.8261 6.22826 16.942 6.79348 17.1304 7.31522L14.4493 9.99638L11.8696 7.41667C12.4348 6.85145 12.4348 5.93841 11.8696 5.37319L10.8406 4.3442L13.913 1.27174C12.2174 -0.423913 9.46377 -0.423913 7.76812 1.27174L3.68116 5.37319C3.11594 5.93841 3.11594 6.85145 3.68116 7.41667L4.71014 8.44565H1.02899C0.753623 8.44565 0.492754 8.5471 0.304348 8.75C-0.101449 9.1558 -0.101449 9.79348 0.304348 10.1993L3.98551 13.8804C4.3913 14.2862 5.02899 14.2862 5.43478 13.8804C5.62319 13.692 5.73913 13.4312 5.73913 13.1558V9.47464L6.75362 10.4891C7.31884 11.0543 8.23188 11.0543 8.7971 10.4891L11.3768 13.0688L2.17391 22.2717C1.31884 23.1268 1.31884 24.5036 2.17391 25.3442C3.02899 26.1993 4.4058 26.1993 5.24638 25.3442L20.2029 10.4022C20.7391 10.5906 21.3043 10.7065 21.8985 10.7065Z" fill="#FF8A65"/>
</svg>
